<?xml version="1.0" encoding="utf-8"?>
<!-- Generated by Mocodo 4.3.2 -->
<svg width="201" height="341" viewBox="0 0 201 341" xmlns="http://www.w3.org/2000/svg">
<rect x="0" y="0" width="201" height="341" fill="#FFFFFF" stroke="none" stroke-width="0"/>

<!-- Association PROVENIR -->
<g>
	<line x1="50" y1="62" x2="50" y2="193" stroke="#000000" stroke-width="1"/>
	<line x1="157" y1="193" x2="50" y2="193" stroke="#000000" stroke-width="1"/>
	<g>
		<path d="M76 167 a14 14 90 0 1 14 14 V193 h-80 V181 a14 14 90 0 1 14 -14" fill="#FFFFFF" stroke="#FFFFFF" stroke-width="0"/>
		<path d="M90 193 v12 a14 14 90 0 1 -14 14 H24 a14 14 90 0 1 -14 -14 V193 H80" fill="#FFFFFF" stroke="#FFFFFF" stroke-width="0"/>
		<rect x="10" y="167" width="80" height="52" fill="none" rx="14" stroke="#000000" stroke-width="1.5"/>
		<line x1="10" y1="193" x2="90" y2="193" stroke="#000000" stroke-width="1"/>
		<text x="18" y="185.6" fill="#000000" font-family="Trebuchet MS" font-size="14">PROVENIR</text>
	</g>
	<text x="55" y="132" fill="#000000" font-family="Verdana" font-size="12">1,1</text>
	<text x="95" y="210" fill="#000000" font-family="Verdana" font-size="12">1,N</text>
</g>

<!-- Association CREER -->
<g>
	<line x1="157" y1="193" x2="157" y2="297" stroke="#000000" stroke-width="1"/>
	<line x1="50" y1="297" x2="157" y2="297" stroke="#000000" stroke-width="1"/>
	<g>
		<path d="M171 271 a14 14 90 0 1 14 14 V297 h-56 V285 a14 14 90 0 1 14 -14" fill="#FFFFFF" stroke="#FFFFFF" stroke-width="0"/>
		<path d="M185 297 v12 a14 14 90 0 1 -14 14 H143 a14 14 90 0 1 -14 -14 V297 H56" fill="#FFFFFF" stroke="#FFFFFF" stroke-width="0"/>
		<rect x="129" y="271" width="56" height="52" fill="none" rx="14" stroke="#000000" stroke-width="1.5"/>
		<line x1="129" y1="297" x2="185" y2="297" stroke="#000000" stroke-width="1"/>
		<text x="136" y="289.6" fill="#000000" font-family="Trebuchet MS" font-size="14">CREER</text>
	</g>
	<text x="162" y="263" fill="#000000" font-family="Verdana" font-size="12">1,1</text>
	<text x="82" y="314" fill="#000000" font-family="Verdana" font-size="12">0,N</text>
</g>

<!-- Entity TITRE -->
<g>
	<g>
		<rect x="9" y="9" width="82" height="26" fill="#FFFFFF" stroke="none" stroke-width="0" opacity="1"/>
		<rect x="9" y="35" width="82" height="80" fill="#FFFFFF" stroke="none" stroke-width="0" opacity="1"/>
		<rect x="9" y="9" width="82" height="106" fill="none" stroke="#000000" stroke-width="1.5" opacity="1"/>
		<line x1="9" y1="35" x2="91" y2="35" stroke="#000000" stroke-width="1"/>
	</g>
	<text x="34" y="27.6" fill="#000000" font-family="Trebuchet MS" font-size="14">Titre</text>
	<text x="14" y="53.6" fill="#000000" font-family="Trebuchet MS" font-size="14">id</text>
	<line x1="14" y1="56" x2="27" y2="56" stroke="#000000" stroke-width="1"/>
	<text x="14" y="71.6" fill="#000000" font-family="Trebuchet MS" font-size="14">titre</text>
	<text x="14" y="89.6" fill="#000000" font-family="Trebuchet MS" font-size="14">url</text>
	<text x="14" y="107.6" fill="#000000" font-family="Trebuchet MS" font-size="14">created_at</text>
</g>

<!-- Entity NOUVEAU -->
<g>
	<g>
		<rect x="124" y="27" width="66" height="26" fill="#FFFFFF" stroke="none" stroke-width="0" opacity="1"/>
		<rect x="124" y="53" width="66" height="44" fill="#FFFFFF" stroke="none" stroke-width="0" opacity="1"/>
		<rect x="124" y="27" width="66" height="70" fill="none" stroke="#000000" stroke-width="1.5" opacity="1"/>
		<line x1="124" y1="53" x2="190" y2="53" stroke="#000000" stroke-width="1"/>
	</g>
	<text x="129" y="45.6" fill="#000000" font-family="Trebuchet MS" font-size="14">Nouveau</text>
	<text x="129" y="71.6" fill="#000000" font-family="Trebuchet MS" font-size="14">id</text>
	<line x1="129" y1="74" x2="142" y2="74" stroke="#000000" stroke-width="1"/>
	<text x="129" y="89.6" fill="#000000" font-family="Trebuchet MS" font-size="14">date</text>
</g>

<!-- Entity ALBUM -->
<g>
	<g>
		<rect x="122" y="140" width="70" height="26" fill="#FFFFFF" stroke="none" stroke-width="0" opacity="1"/>
		<rect x="122" y="166" width="70" height="80" fill="#FFFFFF" stroke="none" stroke-width="0" opacity="1"/>
		<rect x="122" y="140" width="70" height="106" fill="none" stroke="#000000" stroke-width="1.5" opacity="1"/>
		<line x1="122" y1="166" x2="192" y2="166" stroke="#000000" stroke-width="1"/>
	</g>
	<text x="136" y="158.6" fill="#000000" font-family="Trebuchet MS" font-size="14">Album</text>
	<text x="127" y="184.6" fill="#000000" font-family="Trebuchet MS" font-size="14">id</text>
	<line x1="127" y1="187" x2="140" y2="187" stroke="#000000" stroke-width="1"/>
	<text x="127" y="202.6" fill="#000000" font-family="Trebuchet MS" font-size="14">libelle</text>
	<text x="127" y="220.6" fill="#000000" font-family="Trebuchet MS" font-size="14">pochette</text>
	<text x="127" y="238.6" fill="#000000" font-family="Trebuchet MS" font-size="14">annee</text>
</g>

<!-- Entity ARTISTE -->
<g>
	<g>
		<rect x="23" y="262" width="54" height="26" fill="#FFFFFF" stroke="none" stroke-width="0" opacity="1"/>
		<rect x="23" y="288" width="54" height="44" fill="#FFFFFF" stroke="none" stroke-width="0" opacity="1"/>
		<rect x="23" y="262" width="54" height="70" fill="none" stroke="#000000" stroke-width="1.5" opacity="1"/>
		<line x1="23" y1="288" x2="77" y2="288" stroke="#000000" stroke-width="1"/>
	</g>
	<text x="28" y="280.6" fill="#000000" font-family="Trebuchet MS" font-size="14">Artiste</text>
	<text x="28" y="306.6" fill="#000000" font-family="Trebuchet MS" font-size="14">id</text>
	<line x1="28" y1="309" x2="41" y2="309" stroke="#000000" stroke-width="1"/>
	<text x="28" y="324.6" fill="#000000" font-family="Trebuchet MS" font-size="14">nom</text>
</g>
</svg>